<!-- icon666.com - MILLIONS vector ICONS FREE --><svg viewBox="0 0 64 64" xmlns="http://www.w3.org/2000/svg"><g id="Glyph"><path d="m24 19h16v2h-16z"></path><path d="m26 17v-10.274a7.957 7.957 0 0 0 -2 5.274 12.732 12.732 0 0 0 1.091 5z"></path><path d="m22 25h20a1 1 0 0 0 0-2h-20a1 1 0 0 0 0 2z"></path><path d="m40 12a7.957 7.957 0 0 0 -2-5.274v10.274h.909a12.732 12.732 0 0 0 1.091-5z"></path><path d="m31 4.069a7.951 7.951 0 0 0 -3 1.013v11.918h3z"></path><path d="m36 5.082a7.951 7.951 0 0 0 -3-1.013v12.931h3z"></path><path d="m31.293 28.293a1 1 0 0 1 1.6.26l2.379 4.759 1.019-1.019a1 1 0 0 1 1.683.49l1.672 7.525 1.957-1.4-1.486-11.908h-12.7l2.583 2.586z"></path><circle cx="30" cy="41" r="1"></circle><path d="m48 55h-32a1 1 0 0 0 -1 1v4h2v-3h6v3h2v-3h6v3h2v-3h6v3h2v-3h6v3h2v-4a1 1 0 0 0 -1-1z"></path><path d="m45 52a1 1 0 0 0 -1-1h-24a1 1 0 0 0 -1 1v1h26z"></path><path d="m21.882 46.163c-.126 0-.263-.012-.392-.017l-.357 2.854h21.734l-.979-7.834-2.307 1.647a1 1 0 0 1 -.939.121 1 1 0 0 1 -.618-.717l-1.605-7.222-.712.712a.987.987 0 0 1 -.867.28 1 1 0 0 1 -.735-.54l-2.379-4.759-1.019 1.019a1 1 0 0 1 -1.414 0l-4.707-4.707h-.7l-2.147 17.152c3.611.042 5.069-2.095 5.327-2.531a3 3 0 1 1 2.934 2.379 2.97 2.97 0 0 1 -1.768-.589 7.959 7.959 0 0 1 -6.35 2.752zm16.118-1.163h2v2h-2zm-10-9a3 3 0 0 1 -3-3h2a1 1 0 0 0 2 0h2a3 3 0 0 1 -3 3zm6 9h2v2h-2z"></path></g></svg>