<!-- icon666.com - MILLIONS vector ICONS FREE --><svg viewBox="0 0 64 64" xmlns="http://www.w3.org/2000/svg"><g id="outline"><path d="m48 53h-1v-1a2.993 2.993 0 0 0 -2.1-2.846l-2.769-22.167a2.995 2.995 0 0 0 -.131-5.987v-3a.992.992 0 0 0 -.926-.985 15.434 15.434 0 0 0 .926-5.015 10 10 0 0 0 -20 0 15.434 15.434 0 0 0 .926 5.015.992.992 0 0 0 -.926.985v3a2.995 2.995 0 0 0 -.131 5.987l-2.769 22.167a2.993 2.993 0 0 0 -2.1 2.846v1h-1a3 3 0 0 0 -3 3v6h6v-3h2v3h6v-3h2v3h6v-3h2v3h6v-3h2v3h6v-6a3 3 0 0 0 -3-3zm-10-46.274a7.957 7.957 0 0 1 2 5.274 12.732 12.732 0 0 1 -1.091 5h-.909zm-5-2.657a7.951 7.951 0 0 1 3 1.013v11.918h-3zm-5 1.013a7.951 7.951 0 0 1 3-1.013v12.931h-3zm-2 1.644v10.274h-.909a12.732 12.732 0 0 1 -1.091-5 7.957 7.957 0 0 1 2-5.274zm-2 12.274h16v2h-16zm-3 5a1 1 0 0 1 1-1h20a1 1 0 0 1 0 2h-20a1 1 0 0 1 -1-1zm20.6 14.909-1.957 1.4-1.672-7.525a1 1 0 0 0 -1.683-.49l-1.019 1.019-2.369-4.76a1 1 0 0 0 -1.6-.26l-1.3 1.293-2.586-2.586h12.7zm-20.11 7.237c.129.005.266.017.392.017a7.959 7.959 0 0 0 6.35-2.752 2.97 2.97 0 0 0 1.768.589 3.005 3.005 0 1 0 -2.934-2.379c-.258.436-1.716 2.573-5.327 2.531l2.144-17.152h.7l4.707 4.707a1 1 0 0 0 1.414 0l1.019-1.019 2.377 4.759a1 1 0 0 0 .735.54.987.987 0 0 0 .867-.28l.712-.712 1.605 7.222a1 1 0 0 0 .618.717 1 1 0 0 0 .939-.121l2.307-1.647.984 7.834h-21.734zm7.51-5.146a1 1 0 1 1 1 1 1 1 0 0 1 -1-1zm-10 11a1 1 0 0 1 1-1h24a1 1 0 0 1 1 1v1h-26zm30 8h-2v-3h-6v3h-2v-3h-6v3h-2v-3h-6v3h-2v-3h-6v3h-2v-4a1 1 0 0 1 1-1h32a1 1 0 0 1 1 1z"></path><path d="m38 45h2v2h-2z"></path><path d="m34 45h2v2h-2z"></path><path d="m28 34a1 1 0 0 1 -1-1h-2a3 3 0 0 0 6 0h-2a1 1 0 0 1 -1 1z"></path></g></svg>