<svg xmlns="http://www.w3.org/2000/svg" viewBox="0 0 313.2 420.8"><path d="M312.4 420.4V1.3c0-1.5-197.2-.8-213-.8H2.9C-1.5.5 1 43.3 1 48.2v368c0 5.5.8 4.2 6.5 4.2h305" style="fill:#5c4021"/><path d="M40.2.6C39 65.4 51.7 128 86 183.1 114.5 128.7 119.6 60.7 126.2.6c-6.7-1.8-4.8 7.8-5.1 12.3a599 599 0 0 1-7.8 61.6c-5 27.9-12 54.3-27.4 78.2-17-17.6-26.8-46.1-31.7-69.7a629 629 0 0 1-7.9-46.5c-1-7.2.9-37.2-6-35.8" style="fill:#8c6942"/><path d="M49 .6c1.9 45 8 93.6 35.7 130.3 29-32 29.6-89.7 32.3-130-4.4.3-3 19.7-3.4 25q-1.2 16.9-4 33.8c-3.6 22.7-10.7 43-24.3 61.7-15-11.6-21.8-36.1-25.6-53.7-1.8-8.4-7.4-66.3-10.8-67" style="fill:#8c6942"/><path d="M53.7.8c2.2 39.2 9.7 77.4 31.6 110.4C96.8 100.5 101.1 79.8 104 65A655 655 0 0 0 112.3.8q-1.5 0-2.9-.2c1.3 35.8-8.3 71-24 102.9a174 174 0 0 1-21.5-50.8c-2-7-6.8-51.6-10.1-51.9" style="fill:#8c6942"/><path d="M66 .6C64.9 25 73.7 48.3 84.8 69.5c8.8-22 14.8-45.1 15-68.9z" style="fill:#8c6942"/><path d="M30.4.5a789 789 0 0 0 16.2 127.2q4.4 18.4 9.7 36.6c2.3 8.2 8.4 15.4 11.6 23.3a336 336 0 0 1 18 63.6c3-42 20.5-78 30.4-118.1a585 585 0 0 0 16.2-103.6c.5-6.1-1.8-29 3.6-28.7a960 960 0 0 1-7.9 95.4c-2.4 16.2-4.4 32.8-8.7 48.6-4.3 15.6-11 30-15.2 45.6C85.6 259 91 331.4 90.5 401.6V420c-11.9 3-7-23-7-30.1l-1.3-73c-.4-28 1-55.9-6.3-83-8.3-30.6-21.8-59.3-29.9-90a520 520 0 0 1-16.4-91q-2-26.2-2.7-52.5z" style="fill:#8c6942"/><path d="M68 420.4a851 851 0 0 0-15.4-200.6c-6-30.5-23.3-56.6-30.1-86.7A538 538 0 0 1 10.4 32.3c-.4-10.5 0-21.1.2-31.7-6.2-.4-3.5 13-3.4 18q.1 11 .8 22Q9.6 67 12.8 93.2a401 401 0 0 0 22.7 89c23.7 66.2 22.8 133.9 25.7 203.2.2 6-3.1 38.3 6.8 35" style="fill:#8c6942"/><path d="M55.4 420c1-48.7-1.4-98-7-146.4a474 474 0 0 0-11.7-70.4c-3.5-13-6.7-24.9-12.3-37-6-13.1-12-20.5-22-31.1-.2 4.6-1.1 10.6.9 13.3 3.5 4.7 10 8 13.8 13.7 7 10.4 10.1 23.3 13.6 35.2 7.5 25.6 10.2 52.2 13.4 78.5a753 753 0 0 1 5.3 70.3l1 44.2c.2 5.3-3.1 32.1 5 29.7" style="fill:#8c6942"/><path d="M.8 162.6c16.9 5.8 23.6 36.2 27.4 51.2 5.3 21 8.6 42.7 10.8 64.2 4.8 47.2 5.7 94.6 7.6 142-5.3.5-3.4-16.4-3.6-20.5l-2.4-49.4c-1-21.4-1.8-43-3.7-64.4q-3-34.1-12-67.2-4.3-15.7-12.5-29.5c-3-5-6.8-8.5-11-12.5-2.1-2-.5-11-.6-14" style="fill:#8c6942"/><path d="M32 420c4.3-36.7 3.4-73.8 1.7-110.7-1.5-32.5-1.2-89-32.8-107.4-2.6 8.8 7 12.7 11.5 20.4 4.7 8.3 7 17.7 9.7 26.8 5.5 19 6.4 39.8 7.6 59.5 1 18.5.4 37-.4 55.4-.7 14.4 1.7 45-9.2 56z" style="fill:#8c6942"/><path d="M.8 229.6c19.4 22.9 18.1 64.8 18.8 92.8.7 28.8 4.2 61.8-7.7 88.9C9.2 417.5.3 426 1 414c.3-6.2 5.4-14.1 7-20.3 3.7-15.2 7.1-31.1 7.3-46.8A344 344 0 0 0 1.1 246.1c-1.4-4.9 0-11.5-.2-16.6m.5-81.3-.5-60a164 164 0 0 0 16.1 68c-3.3-4.9-9.3-10.3-15.6-8" style="fill:#8c6942"/><path d="M.8 282.5a191 191 0 0 1 .1 97.6c0-32.5.8-65.3 0-97.6M99.3 420c.1-31.9-.5-63.8 0-95.7.6-33-.7-68 6.2-100.5 6.2-29.3 21.8-56.1 26.7-86.2 5-31.2 7.4-63.3 10-94.7 1-14 2.1-28 1-42h2.8c-1.7 62.4-5.7 124-21 184.7-3.3 13.2-10.4 27-12.1 40a1044 1044 0 0 0-7.7 146.5c0 16 .7 31.8 1.1 47.8-2.1 0-4.9.6-7 .2" style="fill:#8c6942"/><path d="M111.8 419.9c1.1-62.5-4.8-129.4 10-190.6 3.2-13.9 10.8-26.6 14-39.8q5.5-22.7 10-45.5c6.5-33.7 4-68.6 4.4-102.7l.2-29.6c0-.4-.4-14.9 2.7-11 1.4 1.8 0 10.6 0 12.8V47c0 33 1.7 65.7-3.7 98.3-2.5 15.1-5 30.7-9.8 45.2-4.7 14-10.6 27-13.8 41.5-6.3 28.7-4.8 59.9-5.8 89l-2.5 69.5c-.1 5.2 3 32.2-5.6 29.4" style="fill:#8c6942"/><path d="M202.3 253.9a140 140 0 0 0-8.2-32.7c-4.1-10.1-11.3-18.8-15.1-28.8a276 276 0 0 1-15.2-68.3c-2.4 29.5-13.4 59.3-24.5 86.6-12.1 29.6-11.7 67-13.6 98.5a1745 1745 0 0 0-3 109.3c0 2.5 3.6 2.2 3.7-.6l1.2-33.7q.9-25.5 2.4-51.1a807 807 0 0 1 10.1-97.6c5-28 20-54.3 22-82.8a159 159 0 0 0 20.2 57.7 144 144 0 0 1 18 65c1.3 24.1 1.4 48.8-1 73-2.3 24.7-11 47.3-13.1 72 6.6 1.5 4.9-14.4 5.3-19.2.5-5.4 2.8-11.2 3.9-16.5q4.5-21.5 6.6-43.2a521 521 0 0 0 .3-87.7" style="fill:#8c6942"/><path d="M136 419.9c-1.2-38.2-3.1-76.8 0-115 2.8-34.7 4-82 25.1-111 30.3 26.1 34.5 70.5 33.8 107.7q-.2 29.6-3.5 59.1a149 149 0 0 1-6 30.6c-2.2 6.6-1 30.1-8.2 29 3.7-35 12.3-68.5 13.7-104 1.6-38.4-6.6-74.1-28.9-105.4-15 31-19.3 68-21 102q-1.4 26.8-2.5 53.5c-.6 17-3 36.8 1.3 53.5zm27-281.5L161.3.7c6-.9 3.2 14.3 3.3 18.6q0 24.4.3 48.8l.6 76.5q-1.5-3-2.7-6.2" style="fill:#8c6942"/><path d="M178 .6q-.1 47.7 1.1 95.3c.9 29.7-2 65.4 10.7 92.8 26.7 57.4 23.1 125.6 17 187.2-1.5 15-4.9 29.4-8.4 44 18.3 2.5 15.7-166.8 11.6-186.1-2.8-13.6-8.3-28-13.5-40.8-4.8-12-6.5-24.5-8.3-37.3-4.6-33.6-3-68.4-3.8-102.2l-.9-39c0-5 2.8-16.7-5.5-13.9" style="fill:#8c6942"/><path d="M198 .8c.7 65-3.6 131.1 9.4 195.1a512 512 0 0 1 11.4 90.1c.8 30.5-1.2 61.6-4.2 91.9a199 199 0 0 1-7.4 41.9c7.7 2.3 9.8-30.4 10.6-36.6A689 689 0 0 0 222 334c1.6-34.5.1-68.6-2.7-103-2.2-27.6-7.7-55-10.1-82.7A2594 2594 0 0 1 202 24.6c-.2-5.6 3-24.6-4-23.8m31.1 0c.2 66.3-.8 132.5.8 198.8 1.5 64 8 129.1 0 192.9-1.3 9.4-3 18-5.4 27.3 10.4.1 8.3-2.7 8.8-12.4q.7-12 1-24.2a2415 2415 0 0 0 1.2-153.2c-1.4-73-1.2-146.2-1.8-219.3 0-4.4 2.3-12-4.6-9.9m30.5-.2q2.4 47.6-.4 95.1c-2 31-10.2 61.3-12 92.4a752 752 0 0 0 1.2 101.8c2.3 31 7.3 61.1 7.7 92.3.2 12.9 0 25.6-3 38.2 10.1 0 12 2.1 11.9-8q-.1-13.5-.7-27.2-.6-22.3-3.4-44.5c-4.3-32.5-9.5-64.3-10.9-97.1-1.3-33 .6-66.3 5.4-99 4.7-31.7 6-64 7.8-96q.9-13.2 1.4-26.4c.2-5.7 4.1-24.3-5-21.6" style="fill:#8c6942"/><path d="M270.3.6c0 32.2-.5 64.4-3.1 96.4-2.7 32-9.7 64.1-12.3 96.5a269 269 0 0 0 7 90.5c7.5 29.7 13.7 60 12.7 90.7l-1.6 45.7c7 1.6 4.7-7.1 4.9-12l.5-23.9a777 777 0 0 0-3.8-92.2c-1.6-15.2-7-29-9.1-44-8.9-63.6 4.4-127.8 7.9-191.3.4-7.5 4.8-57.9-3-56.4m-123 419.3c-.3-28.3-3-56-2-84.4 1.5-32.9 1-69.9 16.6-99.5 18.2 27.6 21 62.6 20.9 94.8-.1 29.9-13 59.3-10.1 89.3-11 .8-7.5-6.1-7.7-15.6-.2-6.2-.8-12.6 0-18.8 1.6-13 7.2-23.9 10.4-36.3 8-31 3.1-60-12.6-87.5-11.7 23.4-15 54-12.9 79.8 1 11.8 3.7 23.7 2.6 35.5-1.2 14.5-1.8 28-1.5 42.7z" style="fill:#8c6942"/><path d="M163.8 287c-12.6 21.8-8 50.9-3.6 74.3a91 91 0 0 0 3.6-74.3m-7.1 133c0-12.4-1.2-27.1 2.6-39 0 6.4 2.6 39-2.6 39M288 .6c0 31.6 1.3 64.3-3 95.6-1.8 13.4-7.7 26.7-11.2 39.8-4.1 15.2-6 30.9-6.7 46.6-1.1 26.4-.9 62 9.3 86.7 11.6 28.2 10.9 55.3 11.5 85.4L289 418c0 1.7 1.1 4 3.4 2 1-.8.1-9.5.2-10.7v-24c.2-30.3 1-61-2.6-91.2-3.7-30.7-17.7-57.5-17.3-89.2.3-31 9.5-59.5 15.4-89.6 7.3-37 3.3-77.1 3.6-114.6z" style="fill:#8c6942"/><path d="M296.3 121.4a261 261 0 0 0-18.2 74.8c-1.6 21.4 4.8 55 20.9 70.2 12.3-47.1 17.3-99.6-2.7-145m1-120.6q-.1 40.8 1.3 81.5c.4 12 .2 24.8 4.2 36.2 4.2 11.7 9.7 23 9.7 35.7 0-11.9 2.2-26.6-1-37.9-2.3-8.3-6-14.4-6.4-23.4l-2.5-54.6c-.3-5.4 1.6-39-5.3-37.5m15.2 230.1C299 291.3 297 353.8 298 415.7c0 2.8 2.6 7.1 2.6 2.7v-10.6a1507 1507 0 0 1 2.2-70.5c1.3-16.3 2-33.2 6-49.2 4.3-17.7 3.5-35 3.7-53.5z" style="fill:#8c6942"/><path d="M304.2 420.2c0-29-3.2-65.8 8.3-93-.2 16.2-.1 32.2-1.7 48.2l-2.3 25.5c-.4 4.5.4 19.4-4.3 19.3M308 .6c0 26.6-3.2 58.4 4.4 84V38.3c-.1-5.7 3.8-39.6-4.5-37.6" style="fill:#8c6942"/><path d="M46.5 128.1c9.1 41.3 31.2 77.3 39.4 119.2 2.7-22.6 6.7-45.2 13.8-66.8 6.9-20.8 14.9-39.9 19.7-61.5-6.7 28.2-17.1 55-23.7 83.1-7.6 32.1-9.2 63-9.2 96-1.4-28.9-2.6-57.8-10.6-85.7-8.3-28.5-26.5-54-29.4-84.3" style="fill:#5b462e"/><path d="M53.3 78.8a178 178 0 0 0 32.2 72.4c16-14 21.6-45 25.3-64.9 5.2-28.1 10.4-57 11-85.7l1.1.2c-1.7 26.7-3.3 55.8-10.6 81.7-7.3 25.5-9.5 50-26.8 71.5C66 135.5 59 104 53.3 78.8" style="fill:#5b462e"/><path d="M85.3 121.4C98 106 103.6 86.5 108.2 67.7a111 111 0 0 1-18.3 49.6c-6.7 9.1-8 4.3-12.9-4.7-5.1-9.5-9.2-19.4-13.3-29.4 4.7 12.2 10.6 30.3 21.6 38.2" style="fill:#5b462e"/><path d="M85.3 103.5A148 148 0 0 0 105 49.3c-2.4 20.4-9.8 39-20.3 56.6-9-14.9-15-31.5-19.5-48.2a217 217 0 0 0 20.1 45.8" style="fill:#5b462e"/><path d="M66 .6q0 37 18.7 68.9c3-5.4-9.8-24-12-30.7A183 183 0 0 1 66.1.6" style="fill:#5b462e"/><path d="M84.7 69.5A128 128 0 0 0 97.1 27a99 99 0 0 1-4.3 20.3c-1.9 6.2-9.1 16-8 22m47.1 66.4c-2 17-5.7 34-12 50-5.6 14.3-14.2 28.7-16 44.3 5.9-32.5 22.2-61.4 28-94.3m13.7 11.9c-3.2 13.7-4.4 30.3-10.4 43-5.5 11. 7-11.8 24.7-13.4 37.6 2-11.4 4.4-25.1 10.8-35 7.9-12.2 9.3-31.5 13-45.6m16.7-12.7A382 382 0 0 1 149 188c-5.6 16.4-15.3 31.2-16 49 5.6-35.1 25.8-66.7 29.4-102.2m-16 96.7c2.2-7.7 8-37.2 17.7-34 12.2 4.2 20.2 31.9 23.7 42.5-3.2-14.6-9.5-33.1-21.9-42.5-7.4-5.6-8.8 1-12.2 8.6-3.6 8.1-5.5 17-7.3 25.4m21.5-83.5c2.2 19.1 6.2 39.3 17.5 55.3-11.2-15.2-14.2-37.2-17.5-55.3m21.5 13.5c.7 28 18.4 50.7 21 78.5-3.4-27.5-17.9-51.2-21-78.5M162 235.9a145 145 0 0 1 17.8 50.6c-2.6-17-9-33-17.5-47.7-7.1 12.4-9.6 27.8-12.3 41.7 2-14.4 3.5-32.4 12-44.6m1.8 51.1a56 56 0 0 1 6.9 29.3 54 54 0 0 0-7.2-27 78 78 0 0 0-4.8 13c.8-5.2 1.9-11 5.1-15.3M207 115.4c1.8 49.4 13.6 97.5 15 146.8-2.8-49.3-10.6-97.6-15-146.8m50.2-3.6c-5.4 31-9.9 62.3-10.7 93.7-.4-31.5 4-63 10.7-93.7m8.4-3c-6 33.2-10.7 66.6-12 100.3 2.3-33.5 7.3-67 12-100.3m22-42.9c.2 43.9-20.5 83.8-20.2 128.3.9-22 2.6-44.7 7.5-66.2 4.8-20.9 12.5-40.5 12.7-62.1m8.7 55.5a245 245 0 0 0-15.8 56.7c4.5-15.9 7.8-34.4 15.5-49 12 12.3 12.4 35.4 13.7 51.4-2-16.7-1.8-46.1-13.4-59.1m8.7-29.9c-2.1 8.4 1.5 16.7 6.5 23.3a45 45 0 0 1-6.5-23.3M.8 229.6c8.6 8 11.3 24.6 13.1 35.7q4 25.4 5.8 51.2c-.8-28.4.4-68-19.1-90.7 0-.8.4 5 .2 3.8m0-27.6c22 6.8 26 44 29 62.6-1.5-24.1-6.8-52.8-29.8-65z" style="fill:#5b462e"/><path d="M.8 162.6c27.3 14.9 31 65 35 91.9-3.6-33.3-9.3-72.2-34.6-96.1 0 1.3-.4 3-.4 4.2" style="fill:#5b462e"/><path d="M7.7 153a62 62 0 0 1-6.6-23.2c0 7.5-4.4 24.4 6.6 23.2" style="fill:#5c4021"/><path d="M2.3 104.4c2.4 14.8 4 29.4 12 42.3a148 148 0 0 1 18.8 41.5 118 118 0 0 0-18.8-43.7c-8.2-11-9.1-27-12-40.1m174.3 240.8c-4.6 14.6-11.5 28.2-11.9 43.8 1.7-15.3 8.4-29 12-43.8m-25.7 7.1c1.1 7 2.7 14.5 1.8 21.5 3.4-6.2.3-15.2-1.8-21.5m35.2 13.7c-1.7 13.4-6.7 26-7.8 39.4 3.2-12.6 7.8-26.2 7.8-39.4m12.2 53.9c4.8-19.6 9-39.6 9.9-59.8-2.7 18.9-3.6 43.1-12.6 60.3zm8.8-.1c6.1-23 9.1-46.8 9.4-70.5a315 315 0 0 1-11.3 70.5zm17.3 0c10.2-33.4 9-70.6 8.2-105 .7 17.2.7 34.8-.8 52-.8 9.3-1.4 18.8-3.2 28-.9 4.6-6.3 24.6-4.2 25m88-92.5a169 169 0 0 0-7.4 47.9c.8-16 .4-36.7 7.6-51.3zm0-96.4a455 455 0 0 0-11 69.5c1.7-23.3 11.3-46.3 11-69.5m-36.5 7.8c4 15.7 11.7 31.2 12.8 47.4-3.4-15.4-13.4-31.4-12.7-47.4M1.1 412.2c10-15.3 11.8-35.6 13.2-53.3q-.9 13.3-3.7 26.3c-2 8.7-8.8 18.7-9.5 27m19 7.8c10.6-12.8 8.4-37.6 8.5-53.2 0 13.6 2.1 44.3-10.5 53.1z" style="fill:#5b462e"/></svg>